<svg width="24" height="25" viewBox="0 0 24 25" fill="none" xmlns="http://www.w3.org/2000/svg">
<path fill-rule="evenodd" clip-rule="evenodd" d="M2 12.285C2 6.88089 6.38089 2.5 11.785 2.5C17.1891 2.5 21.57 6.88089 21.57 12.285C21.57 17.6891 17.1891 22.07 11.785 22.07C6.38089 22.07 2 17.6891 2 12.285ZM11.79 16.02C11.3758 16.02 11.04 15.6843 11.04 15.27V12.17C11.04 11.7558 11.3758 11.42 11.79 11.42C12.2043 11.42 12.54 11.7558 12.54 12.17V15.29C12.5241 15.6942 12.1945 16.015 11.79 16.02ZM11.04 9.74998C11.04 10.1642 11.3758 10.5 11.79 10.5C12.1945 10.495 12.5241 10.1741 12.54 9.76998V9.39998C12.54 8.98576 12.2043 8.64998 11.79 8.64998C11.3758 8.64998 11.04 8.98576 11.04 9.39998V9.74998Z" fill="#E1E1E1"/>
</svg>
