<svg width="166" height="64" viewBox="0 0 166 64" fill="none" xmlns="http://www.w3.org/2000/svg">
<path d="M27.0508 19.375H10.9639V22.3252H17.5322V42.3921H20.5103V22.3252H27.0508V19.375ZM21.7627 16.8701C23.6367 16.8701 25.3345 17.1484 26.856 17.7051C28.3774 18.2617 29.667 19.0225 30.7246 19.9873C31.8008 20.9521 32.6265 22.084 33.2017 23.3828C33.7769 24.6631 34.0645 26.0269 34.0645 27.4741V44.396C34.0645 45.8433 33.7769 47.2163 33.2017 48.5151C32.6265 49.7954 31.8008 50.918 30.7246 51.8828C29.667 52.8477 28.3774 53.6084 26.856 54.165C25.3345 54.7217 23.6367 55 21.7627 55H13.1904C11.3164 55 9.61865 54.7217 8.09717 54.165C6.57568 53.6084 5.27686 52.8477 4.20068 51.8828C3.14307 50.918 2.32666 49.7954 1.75146 48.5151C1.17627 47.2163 0.888672 45.8433 0.888672 44.396V27.4741C0.888672 26.0269 1.17627 24.6631 1.75146 23.3828C2.32666 22.084 3.14307 20.9521 4.20068 19.9873C5.27686 19.0225 6.57568 18.2617 8.09717 17.7051C9.61865 17.1484 11.3164 16.8701 13.1904 16.8701H21.7627ZM46.728 19.375H43.249L50.207 35.9072V42.3921H53.1572V35.9629L60.2266 19.375H56.7476L51.6821 31.8716L46.728 19.375ZM54.7158 16.8701C56.5898 16.8701 58.2876 17.1484 59.8091 17.7051C61.3306 18.2617 62.6201 19.0225 63.6777 19.9873C64.7539 20.9521 65.5796 22.084 66.1548 23.3828C66.73 24.6631 67.0176 26.0269 67.0176 27.4741V44.396C67.0176 45.8433 66.73 47.2163 66.1548 48.5151C65.5796 49.7954 64.7539 50.918 63.6777 51.8828C62.6201 52.8477 61.3306 53.6084 59.8091 54.165C58.2876 54.7217 56.5898 55 54.7158 55H46.1436C44.2695 55 42.5718 54.7217 41.0503 54.165C39.5288 53.6084 38.23 52.8477 37.1538 51.8828C36.0962 50.918 35.2798 49.7954 34.7046 48.5151C34.1294 47.2163 33.8418 45.8433 33.8418 44.396V27.4741C33.8418 26.0269 34.1294 24.6631 34.7046 23.3828C35.2798 22.084 36.0962 20.9521 37.1538 19.9873C38.23 19.0225 39.5288 18.2617 41.0503 17.7051C42.5718 17.1484 44.2695 16.8701 46.1436 16.8701H54.7158ZM87.6689 16.8701C89.543 16.8701 91.2407 17.1484 92.7622 17.7051C94.2837 18.2617 95.5732 19.0225 96.6309 19.9873C97.707 20.9521 98.5327 22.084 99.1079 23.3828C99.6831 24.6631 99.9707 26.0269 99.9707 27.4741V44.396C99.9707 45.8433 99.6831 47.2163 99.1079 48.5151C98.5327 49.7954 97.707 50.918 96.6309 51.8828C95.5732 52.8477 94.2837 53.6084 92.7622 54.165C91.2407 54.7217 89.543 55 87.6689 55H79.0967C77.2227 55 75.5249 54.7217 74.0034 54.165C72.4819 53.6084 71.1831 52.8477 70.1069 51.8828C69.0493 50.918 68.2329 49.7954 67.6577 48.5151C67.0825 47.2163 66.7949 45.8433 66.7949 44.396V27.4741C66.7949 26.0269 67.0825 24.6631 67.6577 23.3828C68.2329 22.084 69.0493 20.9521 70.1069 19.9873C71.1831 19.0225 72.4819 18.2617 74.0034 17.7051C75.5249 17.1484 77.2227 16.8701 79.0967 16.8701H87.6689ZM92.79 23.8838L92.4004 21.5459L90.6191 19.7646L87.7803 19.375H77.3989V42.3921H80.2935V34.1816H87.7803L90.6191 33.8477L92.4004 32.0942L92.79 29.7007V23.8838ZM89.4224 30.9531L87.6133 31.2314H80.2935V22.3252H87.6133L89.5337 22.6313L89.812 24.2734V29.3945L89.4224 30.9531ZM120.622 16.8701C122.496 16.8701 124.194 17.1484 125.715 17.7051C127.237 18.2617 128.526 19.0225 129.584 19.9873C130.66 20.9521 131.486 22.084 132.061 23.3828C132.636 24.6631 132.924 26.0269 132.924 27.4741V44.396C132.924 45.8433 132.636 47.2163 132.061 48.5151C131.486 49.7954 130.66 50.918 129.584 51.8828C128.526 52.8477 127.237 53.6084 125.715 54.165C124.194 54.7217 122.496 55 120.622 55H112.05C110.176 55 108.478 54.7217 106.957 54.165C105.435 53.6084 104.136 52.8477 103.06 51.8828C102.002 50.918 101.186 49.7954 100.611 48.5151C100.036 47.2163 99.748 45.8433 99.748 44.396V27.4741C99.748 26.0269 100.036 24.6631 100.611 23.3828C101.186 22.084 102.002 20.9521 103.06 19.9873C104.136 19.0225 105.435 18.2617 106.957 17.7051C108.478 17.1484 110.176 16.8701 112.05 16.8701H120.622ZM122.042 35.5176V42.3921H124.992V35.2114L124.018 32.6509L120.845 31.5098L123.906 30.0347L124.769 27.5298V24.4404L124.435 22.1025L122.598 19.7646L119.815 19.375H109.434V42.3921H112.412V33.124H119.648L121.624 34.0146L122.042 35.5176ZM119.648 22.3252L121.624 23.188L121.819 24.8022V27.7524L121.401 29.2832L119.648 30.146H112.412V22.3252H119.648ZM153.575 16.8701C155.449 16.8701 157.147 17.1484 158.668 17.7051C160.19 18.2617 161.479 19.0225 162.537 19.9873C163.613 20.9521 164.439 22.084 165.014 23.3828C165.589 24.6631 165.877 26.0269 165.877 27.4741V44.396C165.877 45.8433 165.589 47.2163 165.014 48.5151C164.439 49.7954 163.613 50.918 162.537 51.8828C161.479 52.8477 160.19 53.6084 158.668 54.165C157.147 54.7217 155.449 55 153.575 55H145.003C143.129 55 141.431 54.7217 139.91 54.165C138.388 53.6084 137.089 52.8477 136.013 51.8828C134.956 50.918 134.139 49.7954 133.564 48.5151C132.989 47.2163 132.701 45.8433 132.701 44.396V27.4741C132.701 26.0269 132.989 24.6631 133.564 23.3828C134.139 22.084 134.956 20.9521 136.013 19.9873C137.089 19.0225 138.388 18.2617 139.91 17.7051C141.431 17.1484 143.129 16.8701 145.003 16.8701H153.575ZM154.995 35.5176V42.3921H157.945V35.2114L156.971 32.6509L153.798 31.5098L156.859 30.0347L157.722 27.5298V24.4404L157.388 22.1025L155.551 19.7646L152.768 19.375H142.387V42.3921H145.365V33.124H152.601L154.577 34.0146L154.995 35.5176ZM152.601 22.3252L154.577 23.188L154.772 24.8022V27.7524L154.354 29.2832L152.601 30.146H145.365V22.3252H152.601Z" fill="white"/>
</svg>
