<svg width="166" height="39" viewBox="0 0 166 39" fill="none" xmlns="http://www.w3.org/2000/svg">
<path d="M27.0508 3.375H10.9639V6.3252H17.5322V26.3921H20.5103V6.3252H27.0508V3.375ZM21.7627 0.870117C23.6367 0.870117 25.3345 1.14844 26.856 1.70508C28.3774 2.26172 29.667 3.02246 30.7246 3.9873C31.8008 4.95215 32.6265 6.08398 33.2017 7.38281C33.7769 8.66309 34.0645 10.0269 34.0645 11.4741V28.396C34.0645 29.8433 33.7769 31.2163 33.2017 32.5151C32.6265 33.7954 31.8008 34.918 30.7246 35.8828C29.667 36.8477 28.3774 37.6084 26.856 38.165C25.3345 38.7217 23.6367 39 21.7627 39H13.1904C11.3164 39 9.61865 38.7217 8.09717 38.165C6.57568 37.6084 5.27686 36.8477 4.20068 35.8828C3.14307 34.918 2.32666 33.7954 1.75146 32.5151C1.17627 31.2163 0.888672 29.8433 0.888672 28.396V11.4741C0.888672 10.0269 1.17627 8.66309 1.75146 7.38281C2.32666 6.08398 3.14307 4.95215 4.20068 3.9873C5.27686 3.02246 6.57568 2.26172 8.09717 1.70508C9.61865 1.14844 11.3164 0.870117 13.1904 0.870117H21.7627ZM46.728 3.375H43.249L50.207 19.9072V26.3921H53.1572V19.9629L60.2266 3.375H56.7476L51.6821 15.8716L46.728 3.375ZM54.7158 0.870117C56.5898 0.870117 58.2876 1.14844 59.8091 1.70508C61.3306 2.26172 62.6201 3.02246 63.6777 3.9873C64.7539 4.95215 65.5796 6.08398 66.1548 7.38281C66.73 8.66309 67.0176 10.0269 67.0176 11.4741V28.396C67.0176 29.8433 66.73 31.2163 66.1548 32.5151C65.5796 33.7954 64.7539 34.918 63.6777 35.8828C62.6201 36.8477 61.3306 37.6084 59.8091 38.165C58.2876 38.7217 56.5898 39 54.7158 39H46.1436C44.2695 39 42.5718 38.7217 41.0503 38.165C39.5288 37.6084 38.23 36.8477 37.1538 35.8828C36.0962 34.918 35.2798 33.7954 34.7046 32.5151C34.1294 31.2163 33.8418 29.8433 33.8418 28.396V11.4741C33.8418 10.0269 34.1294 8.66309 34.7046 7.38281C35.2798 6.08398 36.0962 4.95215 37.1538 3.9873C38.23 3.02246 39.5288 2.26172 41.0503 1.70508C42.5718 1.14844 44.2695 0.870117 46.1436 0.870117H54.7158ZM87.6689 0.870117C89.543 0.870117 91.2407 1.14844 92.7622 1.70508C94.2837 2.26172 95.5732 3.02246 96.6309 3.9873C97.707 4.95215 98.5327 6.08398 99.1079 7.38281C99.6831 8.66309 99.9707 10.0269 99.9707 11.4741V28.396C99.9707 29.8433 99.6831 31.2163 99.1079 32.5151C98.5327 33.7954 97.707 34.918 96.6309 35.8828C95.5732 36.8477 94.2837 37.6084 92.7622 38.165C91.2407 38.7217 89.543 39 87.6689 39H79.0967C77.2227 39 75.5249 38.7217 74.0034 38.165C72.4819 37.6084 71.1831 36.8477 70.1069 35.8828C69.0493 34.918 68.2329 33.7954 67.6577 32.5151C67.0825 31.2163 66.7949 29.8433 66.7949 28.396V11.4741C66.7949 10.0269 67.0825 8.66309 67.6577 7.38281C68.2329 6.08398 69.0493 4.95215 70.1069 3.9873C71.1831 3.02246 72.4819 2.26172 74.0034 1.70508C75.5249 1.14844 77.2227 0.870117 79.0967 0.870117H87.6689ZM92.79 7.88379L92.4004 5.5459L90.6191 3.76465L87.7803 3.375H77.3989V26.3921H80.2935V18.1816H87.7803L90.6191 17.8477L92.4004 16.0942L92.79 13.7007V7.88379ZM89.4224 14.9531L87.6133 15.2314H80.2935V6.3252H87.6133L89.5337 6.63135L89.812 8.27344V13.3945L89.4224 14.9531ZM120.622 0.870117C122.496 0.870117 124.194 1.14844 125.715 1.70508C127.237 2.26172 128.526 3.02246 129.584 3.9873C130.66 4.95215 131.486 6.08398 132.061 7.38281C132.636 8.66309 132.924 10.0269 132.924 11.4741V28.396C132.924 29.8433 132.636 31.2163 132.061 32.5151C131.486 33.7954 130.66 34.918 129.584 35.8828C128.526 36.8477 127.237 37.6084 125.715 38.165C124.194 38.7217 122.496 39 120.622 39H112.05C110.176 39 108.478 38.7217 106.957 38.165C105.435 37.6084 104.136 36.8477 103.06 35.8828C102.002 34.918 101.186 33.7954 100.611 32.5151C100.036 31.2163 99.748 29.8433 99.748 28.396V11.4741C99.748 10.0269 100.036 8.66309 100.611 7.38281C101.186 6.08398 102.002 4.95215 103.06 3.9873C104.136 3.02246 105.435 2.26172 106.957 1.70508C108.478 1.14844 110.176 0.870117 112.05 0.870117H120.622ZM122.042 19.5176V26.3921H124.992V19.2114L124.018 16.6509L120.845 15.5098L123.906 14.0347L124.769 11.5298V8.44043L124.435 6.10254L122.598 3.76465L119.815 3.375H109.434V26.3921H112.412V17.124H119.648L121.624 18.0146L122.042 19.5176ZM119.648 6.3252L121.624 7.18799L121.819 8.80225V11.7524L121.401 13.2832L119.648 14.146H112.412V6.3252H119.648ZM153.575 0.870117C155.449 0.870117 157.147 1.14844 158.668 1.70508C160.19 2.26172 161.479 3.02246 162.537 3.9873C163.613 4.95215 164.439 6.08398 165.014 7.38281C165.589 8.66309 165.877 10.0269 165.877 11.4741V28.396C165.877 29.8433 165.589 31.2163 165.014 32.5151C164.439 33.7954 163.613 34.918 162.537 35.8828C161.479 36.8477 160.19 37.6084 158.668 38.165C157.147 38.7217 155.449 39 153.575 39H145.003C143.129 39 141.431 38.7217 139.91 38.165C138.388 37.6084 137.089 36.8477 136.013 35.8828C134.956 34.918 134.139 33.7954 133.564 32.5151C132.989 31.2163 132.701 29.8433 132.701 28.396V11.4741C132.701 10.0269 132.989 8.66309 133.564 7.38281C134.139 6.08398 134.956 4.95215 136.013 3.9873C137.089 3.02246 138.388 2.26172 139.91 1.70508C141.431 1.14844 143.129 0.870117 145.003 0.870117H153.575ZM154.995 19.5176V26.3921H157.945V19.2114L156.971 16.6509L153.798 15.5098L156.859 14.0347L157.722 11.5298V8.44043L157.388 6.10254L155.551 3.76465L152.768 3.375H142.387V26.3921H145.365V17.124H152.601L154.577 18.0146L154.995 19.5176ZM152.601 6.3252L154.577 7.18799L154.772 8.80225V11.7524L154.354 13.2832L152.601 14.146H145.365V6.3252H152.601Z" fill="white"/>
</svg>
